<?xml version="1.0" standalone="no"?>
<!DOCTYPE svg PUBLIC "-//W3C//DTD SVG 20010904//EN"
 "http://www.w3.org/TR/2001/REC-SVG-20010904/DTD/svg10.dtd">
<svg version="1.0" xmlns="http://www.w3.org/2000/svg"
 width="476.000000pt" height="476.000000pt" viewBox="0 0 476.000000 476.000000"
 preserveAspectRatio="xMidYMid meet">

<g transform="translate(0.000000,476.000000) scale(0.100000,-0.100000)"
fill="#000000" stroke="none">
<path d="M2556 4463 c-7 -16 -17 -44 -21 -63 -13 -66 -28 -111 -37 -108 -4 2
-30 39 -56 83 -49 84 -65 95 -97 71 -21 -15 -20 -16 12 -151 4 -18 -3 -22 -50
-32 -66 -14 -179 -67 -270 -127 -65 -43 -69 -44 -100 -31 -60 25 -191 53 -277
59 -159 12 -379 -31 -525 -102 -140 -68 -209 -115 -289 -194 l-68 -68 -58 0
c-174 0 -430 -74 -430 -123 0 -6 19 -33 42 -60 37 -45 40 -51 28 -71 -61 -96
-72 -117 -67 -130 3 -8 31 -21 61 -30 64 -19 66 -25 43 -126 -15 -62 -12 -90
8 -90 7 0 52 13 98 30 47 17 87 30 90 30 2 0 7 -44 11 -97 9 -131 29 -222 71
-323 19 -46 35 -86 35 -87 0 -2 9 -3 20 -3 15 0 23 -13 36 -57 21 -72 46 -122
73 -147 12 -11 21 -24 21 -31 0 -7 -23 -45 -51 -85 -59 -83 -121 -214 -117
-243 4 -25 49 -39 95 -31 30 6 32 4 38 -33 22 -128 34 -142 102 -119 25 9 50
16 54 16 4 0 13 -17 19 -37 7 -21 19 -48 26 -61 l15 -22 39 20 c21 11 58 45
82 75 38 49 58 66 58 50 0 -3 -23 -46 -51 -95 -27 -49 -63 -118 -79 -152 -15
-35 -49 -94 -74 -133 -25 -38 -46 -76 -46 -85 0 -8 -31 -62 -70 -118 -38 -56
-72 -118 -76 -137 -5 -26 2 -59 25 -128 l32 -92 -104 -315 c-57 -173 -116
-355 -131 -405 -16 -49 -48 -143 -72 -208 -49 -132 -52 -147 -26 -147 14 0 23
18 40 78 52 185 321 972 333 972 3 0 23 -7 42 -15 20 -8 57 -15 82 -15 52 0
51 3 30 -115 -48 -270 -55 -295 -204 -755 -23 -68 -41 -130 -41 -137 0 -7 9
-13 20 -13 11 0 20 2 20 5 0 5 34 127 85 300 8 28 17 62 21 78 11 48 19 29 21
-55 2 -80 2 -82 -32 -120 -41 -45 -44 -67 -11 -96 25 -21 25 -34 1 -94 -5 -13
-2 -18 11 -18 26 0 58 75 43 101 -5 11 -14 19 -18 19 -25 0 -19 37 11 79 33
46 33 47 35 171 2 70 12 177 24 245 51 293 81 450 113 590 18 83 39 184 46
225 7 41 16 79 20 83 4 5 13 -22 19 -60 7 -37 20 -97 30 -133 10 -36 28 -101
41 -145 12 -44 32 -114 45 -155 13 -41 40 -131 60 -200 107 -369 279 -819 313
-820 18 0 16 7 -37 126 -99 221 -273 764 -389 1214 -56 217 -88 455 -80 609 4
86 6 91 42 135 63 77 72 67 73 -76 1 -183 49 -514 114 -773 10 -43 102 -353
124 -420 16 -48 94 -243 137 -340 88 -200 86 -191 73 -285 -28 -193 -28 -190
-5 -190 16 0 20 6 20 35 0 43 26 218 39 263 14 46 49 100 77 119 20 13 27 13
40 3 12 -10 14 -25 9 -64 -4 -28 -1 -96 6 -151 7 -55 13 -124 13 -152 0 -35 3
-53 12 -53 6 0 14 6 17 13 3 8 38 18 91 25 222 29 475 215 502 367 12 68 21
75 39 30 9 -22 34 -78 55 -125 21 -47 44 -99 50 -117 7 -18 32 -62 56 -99 24
-37 44 -73 44 -80 0 -8 7 -14 16 -14 20 0 11 30 -27 90 -16 25 -41 70 -55 100
-13 30 -33 73 -44 95 -10 22 -37 82 -58 134 l-40 93 24 87 c43 160 84 382 84
462 0 61 -22 138 -47 166 -20 21 -31 25 -63 20 -63 -8 -85 -33 -116 -127 -26
-78 -28 -82 -36 -55 -4 16 -12 75 -18 130 -7 55 -18 136 -26 180 -22 128 -20
139 50 287 35 74 74 166 85 204 18 58 32 79 89 139 149 154 151 165 75 323
-31 64 -74 143 -97 175 l-40 59 18 86 c71 334 106 610 115 903 6 218 8 238 28
262 12 15 31 71 44 125 20 83 30 107 74 167 72 97 89 133 74 151 -17 21 -34
18 -106 -23 l-66 -36 6 54 c4 30 10 76 13 103 7 52 -2 66 -42 66 -16 0 -33
-19 -65 -67 -24 -38 -44 -70 -46 -72 -11 -15 -23 25 -29 94 -7 83 -22 115 -55
115 -10 0 -25 -12 -33 -27z m59 -105 c6 -47 17 -93 24 -102 21 -25 45 -19 64
17 10 18 36 53 58 77 l40 45 -6 -45 c-3 -25 -11 -69 -17 -98 -10 -48 -10 -55
9 -73 l20 -20 67 37 c37 20 69 34 72 31 3 -2 -20 -40 -50 -83 -78 -110 -87
-129 -96 -196 -5 -37 -20 -77 -38 -106 -30 -47 -30 -48 -36 -247 -3 -110 -10
-243 -16 -295 -5 -52 -14 -142 -20 -200 -17 -176 -83 -496 -136 -662 -12 -36
-21 -48 -35 -48 -30 0 -153 130 -184 194 l-27 55 22 98 c61 272 118 647 130
860 5 99 12 187 15 196 4 10 -4 23 -24 38 -16 12 -46 48 -66 80 -30 49 -46 63
-100 90 -36 17 -70 38 -77 47 -11 13 -1 14 89 8 63 -5 103 -4 107 2 3 6 9 37
12 69 5 46 1 75 -19 138 -54 174 -44 188 41 60 70 -106 83 -107 110 -11 12 41
22 85 22 98 0 14 3 28 7 32 18 17 29 -8 38 -86z m-239 -163 c3 -19 3 -51 0
-70 l-7 -36 -83 7 c-90 7 -126 -3 -126 -36 0 -24 43 -65 96 -90 43 -20 61 -39
120 -128 34 -51 37 -72 10 -72 -7 0 -46 37 -87 82 -94 105 -97 108 -197 170
-79 50 -82 52 -65 69 48 48 247 138 305 139 23 0 28 -5 34 -35z m-645 -81
c203 -34 372 -120 510 -259 83 -84 121 -137 156 -215 24 -53 25 -59 14 -140
-6 -47 -16 -132 -22 -190 -11 -113 -29 -158 -29 -75 0 66 -16 204 -30 253 -11
43 -47 95 -60 87 -4 -2 1 -35 12 -72 11 -41 21 -119 25 -193 6 -115 5 -124
-10 -112 -9 8 -19 24 -23 35 -3 12 -14 31 -23 42 -19 22 -118 190 -144 243
-14 29 -14 33 -2 28 28 -10 15 21 -18 47 -18 14 -41 43 -51 65 -10 22 -27 43
-38 45 -20 6 -21 -1 -7 -52 3 -11 -15 -14 -100 -13 l-105 1 -52 58 c-28 32
-55 55 -60 50 -4 -4 3 -36 15 -71 l22 -64 -26 -26 c-32 -32 -26 -45 10 -26 14
7 27 11 29 9 8 -8 56 -180 56 -200 0 -11 -5 -19 -10 -19 -10 0 -174 153 -314
293 -32 32 -63 56 -69 54 -6 -2 -15 -16 -20 -33 -5 -16 -33 -92 -62 -169 -29
-77 -61 -166 -71 -197 -10 -32 -21 -58 -26 -58 -4 0 -15 26 -23 58 -9 31 -20
70 -26 85 -7 25 -6 30 11 34 25 7 25 7 -5 37 -21 21 -25 34 -25 86 0 52 -3 60
-18 60 -21 0 -33 -23 -52 -96 -12 -48 -15 -51 -58 -63 -24 -6 -56 -20 -69 -31
-25 -19 -49 -18 -38 1 11 18 -6 49 -27 49 -19 0 -20 -4 -15 -55 5 -51 3 -59
-29 -106 -37 -55 -41 -69 -21 -69 7 0 23 18 36 40 12 22 27 40 33 40 12 0 9
-28 -20 -225 -11 -77 -24 -175 -28 -217 -7 -77 -15 -95 -29 -60 -49 122 -85
272 -85 349 0 50 -24 37 -28 -15 -2 -22 4 -75 13 -117 19 -94 18 -81 16 -137
-1 -59 -15 -62 -30 -5 -33 125 -41 187 -41 305 0 276 63 471 204 628 71 79
137 129 242 182 115 59 146 70 263 97 167 38 238 42 372 19z m-997 -363 c14
-5 16 -10 8 -15 -22 -13 -79 -139 -96 -211 -9 -38 -22 -110 -29 -160 l-13 -90
-57 -23 c-31 -12 -71 -25 -88 -29 -30 -6 -32 -5 -27 23 3 16 11 50 18 75 7 25
11 53 7 61 -3 9 -28 21 -56 28 -28 7 -53 16 -56 21 -3 4 12 35 35 67 22 33 40
66 40 74 0 8 -18 36 -40 60 -48 55 -45 58 61 88 111 30 256 46 293 31z m1696
-52 c0 -27 -2 -30 -15 -19 -8 7 -15 21 -15 31 0 11 7 19 15 19 10 0 15 -10 15
-31z m-999 -96 c24 -29 272 -255 313 -285 41 -30 53 -33 74 -20 10 7 10 26 -2
98 -8 49 -22 109 -30 133 -9 24 -16 45 -16 48 0 2 43 -46 95 -106 101 -117
175 -181 208 -181 19 0 20 5 14 93 l-6 92 38 -72 c42 -79 191 -303 202 -303 3
0 9 9 12 20 8 32 27 23 27 -12 0 -33 -31 -202 -51 -284 -9 -35 -16 -44 -39
-49 -15 -3 -35 -14 -44 -24 -16 -17 -35 -124 -36 -196 0 -66 -17 -108 -50
-127 -25 -14 -30 -24 -30 -53 0 -19 -5 -35 -11 -35 -6 0 -29 -18 -50 -40 -49
-50 -63 -51 -42 -3 13 31 13 49 4 104 -12 74 -61 192 -93 227 -27 28 -54 28
-186 -2 -59 -14 -152 -32 -207 -42 -146 -24 -138 -15 -133 -148 4 -99 8 -119
35 -178 17 -36 41 -72 53 -78 41 -22 8 -31 -71 -20 -297 43 -463 214 -529 543
-9 47 -8 88 5 210 9 84 19 184 23 222 l8 70 34 -70 c25 -50 41 -71 56 -73 21
-3 21 -4 -8 -57 -38 -71 -49 -192 -24 -277 16 -55 31 -77 43 -64 4 3 -2 33
-12 66 -48 160 30 333 164 361 31 7 62 18 70 25 23 21 -12 29 -72 15 -49 -11
-63 -17 -115 -49 -21 -12 -21 -11 -16 40 4 29 17 99 30 155 13 57 24 112 24
123 0 11 7 20 15 20 9 0 15 -9 15 -21 0 -12 14 -66 30 -119 30 -97 52 -132 70
-114 10 10 115 279 153 392 22 64 35 74 58 45z m549 -2 c22 -6 28 -18 48 -96
12 -50 21 -103 19 -120 -3 -29 -5 -28 -109 76 -58 58 -111 115 -117 127 -12
22 -11 22 61 21 40 -1 84 -4 98 -8z m-930 -187 c0 -3 -9 -40 -19 -82 -11 -43
-23 -101 -27 -131 -6 -48 -8 -52 -20 -36 -23 31 -66 153 -62 177 4 30 128 100
128 72z m1225 -731 c-5 -54 -3 -63 32 -125 67 -118 171 -208 240 -208 70 0 95
25 68 66 -16 24 -12 74 6 74 5 0 20 -18 34 -40 28 -45 125 -251 125 -267 0
-18 -64 -99 -131 -163 -66 -65 -67 -66 -112 -200 -38 -116 -103 -250 -127
-265 -4 -2 -27 8 -51 24 -30 18 -65 58 -108 121 -68 100 -94 157 -106 230 -10
67 -15 80 -30 80 -8 0 -19 -9 -25 -20 -18 -33 -109 -115 -166 -150 -87 -53
-233 -87 -298 -69 -72 19 -151 60 -188 97 l-38 36 0 111 1 110 23 -48 c50
-101 107 -137 219 -137 40 0 96 7 123 15 27 8 51 14 54 13 3 -1 34 19 70 44
36 25 70 43 77 41 6 -2 14 1 18 6 4 7 -1 8 -12 5 -10 -4 7 16 37 44 30 27 58
48 63 45 4 -2 6 -1 5 4 -1 4 6 20 16 36 17 24 17 38 5 87 -3 11 6 16 29 18 33
3 34 4 30 47 -3 40 0 45 32 67 l35 24 7 114 c10 164 14 181 46 189 2 1 0 -25
-3 -56z m-1450 1 c15 -19 33 -57 40 -82 7 -26 16 -55 20 -64 4 -10 3 -18 -1
-18 -15 0 -50 62 -69 120 -10 30 -20 61 -23 68 -8 22 5 13 33 -24z m1109 -149
c64 -130 61 -232 -9 -294 -66 -58 -260 -97 -353 -72 -62 17 -109 63 -127 124
-18 60 -20 222 -4 233 7 4 41 13 78 20 36 7 122 27 191 43 180 42 177 43 224
-54z m-977 -148 c39 -66 141 -155 230 -198 l61 -31 -39 -62 c-21 -34 -60 -86
-87 -116 -61 -68 -82 -65 -82 10 0 61 -11 68 -71 41 -85 -39 -96 -31 -101 79
l-3 55 -67 -3 c-61 -3 -68 -2 -68 15 0 38 122 235 165 265 17 13 29 3 62 -55z
m1103 -153 c0 -9 -30 -47 -67 -86 -53 -54 -88 -80 -158 -115 -79 -40 -99 -46
-170 -50 -75 -4 -83 -2 -133 27 -59 35 -84 76 -58 96 9 6 71 14 139 16 149 7
243 29 350 83 97 49 97 49 97 29z m75 -383 c17 -52 43 -106 71 -145 24 -33 54
-75 66 -92 12 -17 47 -47 78 -66 l55 -34 23 -145 c12 -79 25 -169 29 -199 l6
-55 -37 41 c-27 32 -48 45 -85 54 -45 11 -53 10 -99 -14 -28 -14 -53 -30 -57
-36 -3 -5 -32 -10 -63 -10 -31 -1 -68 -7 -82 -15 -14 -8 -37 -14 -51 -15 -31
0 -130 -58 -161 -95 l-23 -26 -45 20 c-25 11 -52 21 -60 21 -21 0 -90 -58 -90
-75 0 -8 -4 -16 -9 -19 -16 -10 -111 323 -146 509 -40 216 -57 385 -38 385 4
0 16 -9 27 -19 27 -25 149 -77 202 -85 104 -18 288 54 397 154 34 32 63 55 64
51 0 -3 13 -44 28 -90z m-930 -311 c-8 -47 -37 -172 -63 -279 -47 -187 -50
-195 -76 -204 -56 -19 -145 33 -182 105 -9 18 -17 55 -18 82 -1 46 5 62 66
162 37 61 72 123 78 138 5 15 14 24 20 21 5 -3 8 0 5 7 -6 16 69 131 79 121 4
-4 4 0 1 9 -4 10 11 53 36 105 l44 88 12 -135 c11 -115 10 -148 -2 -220z
m1505 -355 c11 -22 15 -63 14 -160 0 -121 -3 -143 -46 -312 -43 -171 -105
-333 -128 -333 -11 0 -150 197 -150 213 0 7 16 39 36 72 54 89 86 164 92 213
6 52 17 58 67 38 26 -11 42 -13 50 -6 7 6 22 46 35 90 25 88 24 158 -4 189
-21 23 -20 33 1 29 10 -2 25 -17 33 -33z m-346 -10 c65 -31 89 -143 41 -191
l-25 -24 21 -53 c11 -28 23 -81 26 -117 5 -55 2 -73 -17 -110 -27 -55 -103
-136 -150 -159 -75 -38 -176 -61 -248 -57 -141 9 -203 64 -242 216 l-16 65
-45 8 c-63 12 -89 44 -89 110 1 62 24 113 63 135 26 16 29 16 78 -12 l50 -28
40 41 c56 60 152 100 253 108 52 4 87 11 99 21 32 28 92 61 110 62 11 0 34 -7
51 -15z m295 -38 c23 -67 -6 -197 -44 -197 -36 0 -65 12 -65 27 0 8 4 12 8 9
5 -3 7 7 5 22 -5 34 41 168 56 165 6 -2 10 0 10 5 -7 40 12 21 30 -31z m-175
-143 c9 -67 7 -103 -5 -149 l-12 -40 -14 54 c-7 30 -18 60 -24 67 -8 9 -4 27
13 63 12 28 26 51 29 51 3 0 9 -21 13 -46z m-767 -276 c6 -7 20 -43 32 -80 25
-74 70 -139 119 -168 l32 -20 -21 -21 c-11 -11 -25 -34 -31 -50 -11 -31 -23
-37 -31 -16 -3 6 -28 64 -55 127 -27 63 -56 135 -65 160 -8 25 -18 53 -22 63
-5 13 -2 17 13 17 11 0 24 -6 29 -12z m697 -220 c60 -63 120 -169 111 -198
-10 -32 -126 -129 -190 -160 -58 -28 -171 -62 -246 -74 -36 -6 -37 -6 -48 40
-7 25 -15 104 -18 175 -6 135 0 162 36 152 30 -8 187 46 238 81 26 19 52 34
57 35 6 1 33 -23 60 -51z"/>
<path d="M2536 4072 c-4 -6 2 -16 13 -21 21 -12 51 -79 51 -116 0 -22 16 -43
26 -33 2 3 -3 31 -11 64 -16 60 -66 127 -79 106z"/>
<path d="M1815 3267 c-34 -16 -61 -44 -51 -54 3 -4 30 1 60 10 61 20 136 21
185 3 77 -28 186 -177 199 -273 8 -53 28 -67 38 -27 18 70 -89 258 -178 315
-48 31 -60 34 -138 37 -55 1 -95 -3 -115 -11z"/>
<path d="M1848 3178 c-49 -28 -63 -59 -63 -137 1 -135 85 -218 199 -197 44 8
94 60 102 104 15 79 -30 192 -91 227 -51 30 -98 31 -147 3z m112 -42 c28 -35
-11 -93 -47 -70 -36 22 -23 84 17 84 10 0 23 -7 30 -14z m-105 -96 c0 -61 3
-73 25 -94 37 -37 70 -41 104 -15 27 21 28 26 24 86 -3 55 -2 62 9 47 27 -37
9 -145 -27 -164 -60 -32 -142 28 -154 111 -7 46 0 99 13 99 3 0 6 -31 6 -70z"/>
<path d="M1144 3025 c-36 -28 -64 -89 -64 -140 0 -45 40 -133 74 -165 23 -20
37 -25 80 -24 94 2 139 43 152 138 9 60 -39 166 -88 196 -47 29 -114 27 -154
-5z m126 -44 c13 -25 13 -27 -6 -45 -35 -36 -87 0 -64 44 14 26 56 26 70 1z
m-106 -86 c6 -76 27 -116 67 -125 61 -15 94 33 84 123 -5 42 -4 48 6 33 17
-27 7 -131 -15 -155 -21 -23 -79 -35 -105 -22 -43 24 -73 131 -55 199 9 34 13
24 18 -53z"/>
<path d="M1096 1648 c3 -5 10 -6 15 -3 13 9 11 12 -6 12 -8 0 -12 -4 -9 -9z"/>
<path d="M2277 1112 c-30 -31 -33 -42 -13 -42 7 0 25 -10 40 -21 32 -26 38
-22 30 19 -4 22 -10 29 -21 25 -13 -5 -13 -2 -4 15 22 42 6 44 -32 4z"/>
<path d="M1710 934 c0 -8 5 -14 10 -14 6 0 10 -9 10 -19 0 -21 17 -37 27 -27
4 4 1 12 -5 18 -19 19 -14 30 7 18 24 -12 41 -13 41 -1 0 9 -16 17 -62 31 -22
7 -28 5 -28 -6z"/>
<path d="M2220 880 c-18 -11 -4 -57 23 -74 36 -23 75 35 47 70 -14 16 -48 18
-70 4z"/>
<path d="M1722 839 c2 -7 10 -15 17 -17 8 -3 12 1 9 9 -2 7 -10 15 -17 17 -8
3 -12 -1 -9 -9z"/>
<path d="M1898 759 c-21 -12 -24 -59 -6 -77 7 -7 21 -12 33 -12 12 0 26 5 33
12 19 19 15 66 -7 78 -24 12 -31 12 -53 -1z m40 -40 c-2 -6 -8 -10 -13 -10 -5
0 -11 4 -13 10 -2 6 4 11 13 11 9 0 15 -5 13 -11z"/>
<path d="M2097 712 c-26 -28 -21 -50 13 -57 35 -8 48 -39 26 -64 -17 -19 -21
-41 -8 -41 5 0 18 11 30 24 18 22 25 24 54 15 42 -12 58 -12 58 1 0 5 -21 16
-47 23 -44 13 -48 17 -45 43 9 70 9 69 -29 72 -24 2 -40 -3 -52 -16z"/>
<path d="M2607 1123 c-4 -3 -7 -11 -7 -17 0 -6 5 -5 12 2 6 6 9 14 7 17 -3 3
-9 2 -12 -2z"/>
<path d="M2616 1085 c-3 -8 -1 -15 4 -15 6 0 10 7 10 15 0 8 -2 15 -4 15 -2 0
-6 -7 -10 -15z"/>
<path d="M2591 1074 c0 -11 3 -14 6 -6 3 7 2 16 -1 19 -3 4 -6 -2 -5 -13z"/>
<path d="M2630 1049 c0 -5 5 -7 10 -4 6 3 10 8 10 11 0 2 -4 4 -10 4 -5 0 -10
-5 -10 -11z"/>
<path d="M2626 985 c-11 -8 -15 -15 -9 -15 6 0 16 7 23 15 16 19 11 19 -14 0z"/>
<path d="M2585 960 c3 -5 8 -10 11 -10 2 0 4 5 4 10 0 6 -5 10 -11 10 -5 0 -7
-4 -4 -10z"/>
<path d="M2748 26 c-28 -20 -22 -26 27 -26 46 0 54 7 33 28 -16 16 -39 15 -60
-2z"/>
</g>
</svg>
